Coordinates
version=1
nRows=33
nColumns=38
inDegrees=no

Units are S.I. units (second, meters, Newtons, ...)
If the header above contains a line with 'inDegrees', this indicates whether rotational values are in degrees (yes) or radians (no).

endheader
time	pelvis_tilt	pelvis_list	pelvis_rotation	pelvis_tx	pelvis_ty	pelvis_tz	hip_flexion_r	hip_adduction_r	hip_rotation_r	knee_angle_r	ankle_angle_r	subtalar_angle_r	mtp_angle_r	hip_flexion_l	hip_adduction_l	hip_rotation_l	knee_angle_l	ankle_angle_l	subtalar_angle_l	mtp_angle_l	lumbar_extension	lumbar_bending	lumbar_rotation	arm_flex_r	arm_add_r	arm_rot_r	elbow_flex_r	pro_sup_r	wrist_flex_r	wrist_dev_r	arm_flex_l	arm_add_l	arm_rot_l	elbow_flex_l	pro_sup_l	wrist_flex_l	wrist_dev_l
0	3.01818	1.34643	-1.30327	0.65767	-0.228828	0.946769	-0.242495	0.0309213	-0.0691336	0.270856	-0.194586	0	0	-0.232896	-0.0916911	-0.0222783	0.288443	-0.155848	0	0	-0.28351	0.0829416	-0.107808	-0.00927371	-0.346974	0.409653	0.747862	1.5708	0	0	0.00566098	-0.259684	0.365996	0.768991	1.5708	0	0
0.01	3.01741	1.3468	-1.30249	0.65764	-0.228987	0.946754	-0.241888	0.0308475	-0.0681662	0.27091	-0.194519	0	0	-0.232525	-0.0918033	-0.0214046	0.287971	-0.155833	0	0	-0.283072	0.0834894	-0.107554	-0.00903332	-0.347342	0.408295	0.748439	1.5708	0	0	0.00546845	-0.260157	0.366365	0.769574	1.5708	0	0
0.02	3.0163	1.34764	-1.30146	0.657626	-0.229128	0.946743	-0.240796	0.0307557	-0.0670633	0.27091	-0.194597	0	0	-0.231705	-0.0918121	-0.0204667	0.287406	-0.155912	0	0	-0.282448	0.0840294	-0.107715	-0.00835529	-0.347715	0.407593	0.749005	1.5708	0	0	0.00491324	-0.260436	0.365469	0.770324	1.5708	0	0
0.03	3.01552	1.34834	-1.30076	0.657639	-0.229242	0.946736	-0.23998	0.0306993	-0.0662336	0.270766	-0.194842	0	0	-0.231114	-0.091799	-0.0197234	0.286738	-0.156127	0	0	-0.282023	0.0844164	-0.107784	-0.00764512	-0.348089	0.407138	0.749533	1.5708	0	0	0.00449986	-0.260631	0.364233	0.770893	1.5708	0	0
0.04	3.01497	1.34895	-1.30028	0.657661	-0.229334	0.946722	-0.239474	0.0306947	-0.065476	0.270194	-0.195066	0	0	-0.230586	-0.0918332	-0.0193758	0.286178	-0.156434	0	0	-0.281698	0.0845485	-0.107796	-0.00701022	-0.34824	0.406561	0.74988	1.5708	0	0	0.00415735	-0.261038	0.363537	0.77181	1.5708	0	0
0.05	3.01397	1.34964	-1.29943	0.657685	-0.229438	0.946689	-0.23885	0.0307613	-0.064702	0.269577	-0.195269	0	0	-0.229888	-0.0918948	-0.0190648	0.285719	-0.1567	0	0	-0.281258	0.0847284	-0.107655	-0.00654295	-0.348555	0.406164	0.750523	1.5708	0	0	0.00380746	-0.261453	0.363033	0.772916	1.5708	0	0
0.06	3.01262	1.35044	-1.29828	0.657716	-0.229565	0.946652	-0.238091	0.030875	-0.0637314	0.26885	-0.195431	0	0	-0.229011	-0.0919726	-0.0187362	0.285405	-0.156845	0	0	-0.280622	0.0849795	-0.107296	-0.00623909	-0.348728	0.405301	0.751028	1.5708	0	0	0.00338544	-0.262044	0.362647	0.774221	1.5708	0	0
0.07	3.01169	1.35111	-1.29747	0.657751	-0.229707	0.946639	-0.237501	0.0309515	-0.0629687	0.268073	-0.195666	0	0	-0.228164	-0.0920099	-0.0185072	0.28531	-0.157228	0	0	-0.280223	0.0853686	-0.106933	-0.00575103	-0.348718	0.40407	0.751394	1.5708	0	0	0.00325548	-0.262402	0.362414	0.774946	1.5708	0	0
0.08	3.01081	1.35158	-1.29666	0.657783	-0.229858	0.946649	-0.237086	0.0310183	-0.0630453	0.267313	-0.196265	0	0	-0.227439	-0.09211	-0.0185701	0.285351	-0.157776	0	0	-0.280076	0.0858278	-0.106599	-0.00520117	-0.348682	0.402971	0.75176	1.5708	0	0	0.00326803	-0.262675	0.362529	0.77543	1.5708	0	0
0.09	3.00955	1.35186	-1.29545	0.657818	-0.23003	0.946667	-0.236797	0.0312127	-0.0633619	0.266593	-0.196852	0	0	-0.22685	-0.092316	-0.018618	0.285301	-0.158041	0	0	-0.280234	0.0863864	-0.106308	-0.00456894	-0.348751	0.402206	0.752237	1.5708	0	0	0.00340958	-0.262841	0.362259	0.775899	1.5708	0	0
0.1	3.00779	1.35213	-1.29379	0.65787	-0.23018	0.946666	-0.236629	0.0316099	-0.0632376	0.265672	-0.197314	0	0	-0.226532	-0.0924595	-0.0176212	0.284854	-0.157817	0	0	-0.280406	0.086949	-0.10598	-0.00392717	-0.348829	0.401723	0.752699	1.5708	0	0	0.00355816	-0.262896	0.361573	0.776384	1.5708	0	0
0.11	3.00493	1.35249	-1.29125	0.657947	-0.230298	0.946643	-0.236328	0.0322183	-0.0628822	0.264686	-0.197804	0	0	-0.226292	-0.0925654	-0.015539	0.284242	-0.157369	0	0	-0.280368	0.0876481	-0.105349	-0.00340728	-0.348984	0.401264	0.753198	1.5708	0	0	0.0038746	-0.262743	0.360827	0.776472	1.5708	0	0
0.12	3.00337	1.35343	-1.28976	0.657996	-0.230398	0.94661	-0.23546	0.0323017	-0.0634828	0.263779	-0.198419	0	0	-0.225091	-0.0926052	-0.0155434	0.28428	-0.157422	0	0	-0.279534	0.087799	-0.104861	-0.0032508	-0.349094	0.4008	0.753591	1.5708	0	0	0.00421984	-0.262944	0.36126	0.776367	1.5708	0	0
0.13	3.00328	1.35427	-1.28959	0.658029	-0.230493	0.946592	-0.234719	0.0320826	-0.0647322	0.263087	-0.198854	0	0	-0.223949	-0.0926029	-0.0166913	0.284438	-0.157643	0	0	-0.278773	0.0877408	-0.104539	-0.00310233	-0.349229	0.400578	0.753976	1.5708	0	0	0.00445573	-0.263183	0.361933	0.77619	1.5708	0	0
0.14	3.00185	1.3548	-1.28836	0.658137	-0.230562	0.94657	-0.234158	0.032234	-0.0659434	0.262542	-0.199269	0	0	-0.223555	-0.0926519	-0.0156163	0.283802	-0.157671	0	0	-0.278222	0.0878416	-0.103948	-0.00291187	-0.349244	0.400464	0.75424	1.5708	0	0	0.00458274	-0.263421	0.362108	0.776236	1.5708	0	0
0.15	3.00033	1.35518	-1.28707	0.658243	-0.230644	0.946558	-0.233725	0.0324617	-0.0667969	0.261974	-0.199629	0	0	-0.22322	-0.0927516	-0.0147549	0.283334	-0.157777	0	0	-0.277979	0.0879451	-0.103296	-0.00269469	-0.349313	0.400481	0.754579	1.5708	0	0	0.00485778	-0.263529	0.361878	0.776261	1.5708	0	0
0.16	2.99927	1.35554	-1.28624	0.658338	-0.230732	0.94656	-0.233424	0.0326536	-0.0671225	0.261137	-0.199937	0	0	-0.222784	-0.0928315	-0.0146255	0.283129	-0.158111	0	0	-0.27786	0.0879394	-0.102687	-0.00260379	-0.349391	0.400394	0.755026	1.5708	0	0	0.00523178	-0.263548	0.36146	0.776171	1.5708	0	0
0.17	2.99906	1.35571	-1.28634	0.65843	-0.230835	0.946585	-0.233216	0.0326525	-0.0672167	0.26072	-0.200158	0	0	-0.222508	-0.0927925	-0.0149795	0.283114	-0.158443	0	0	-0.277988	0.0877649	-0.10192	-0.00263386	-0.349534	0.400256	0.755565	1.5708	0	0	0.00561622	-0.263637	0.361352	0.776266	1.5708	0	0
0.18	2.9998	1.35555	-1.28713	0.658502	-0.230965	0.94663	-0.233327	0.0325617	-0.0676311	0.260669	-0.200317	0	0	-0.222607	-0.0926409	-0.0148001	0.282981	-0.158644	0	0	-0.278541	0.0875837	-0.101285	-0.00249755	-0.349545	0.399915	0.755954	1.5708	0	0	0.00610129	-0.263826	0.361617	0.77649	1.5708	0	0
0.19	3.00185	1.35527	-1.28892	0.658539	-0.231094	0.946676	-0.233619	0.0322207	-0.0685982	0.260726	-0.2005	0	0	-0.222872	-0.0922375	-0.0140819	0.282834	-0.158767	0	0	-0.279225	0.0871858	-0.100902	-0.00248795	-0.349574	0.399744	0.756315	1.5708	0	0	0.00667383	-0.264073	0.362058	0.776684	1.5708	0	0
0.2	3.00374	1.35511	-1.29056	0.658581	-0.231167	0.946688	-0.233841	0.0319165	-0.0695408	0.260746	-0.200637	0	0	-0.22312	-0.0918971	-0.0135687	0.282668	-0.158857	0	0	-0.279487	0.086681	-0.100446	-0.00285637	-0.349691	0.399779	0.756666	1.5708	0	0	0.00715838	-0.264347	0.362666	0.77676	1.5708	0	0
0.21	3.00356	1.35512	-1.29052	0.658648	-0.231226	0.946707	-0.233698	0.0319818	-0.0696464	0.260706	-0.200681	0	0	-0.223072	-0.0918939	-0.0136373	0.282641	-0.15889	0	0	-0.279388	0.0868738	-0.100041	-0.00299427	-0.34995	0.400051	0.756949	1.5708	0	0	0.00739668	-0.264402	0.363144	0.77641	1.5708	0	0
0.22	3.00201	1.35528	-1.28937	0.658727	-0.231294	0.946735	-0.233295	0.0323133	-0.0688593	0.260687	-0.200785	0	0	-0.222813	-0.0920776	-0.013878	0.282616	-0.158988	0	0	-0.279433	0.0873369	-0.100093	-0.00260941	-0.349782	0.399944	0.756863	1.5708	0	0	0.00692336	-0.26439	0.362683	0.776662	1.5708	0	0
0.23	3.0015	1.35531	-1.28894	0.658797	-0.231343	0.946762	-0.233252	0.0325416	-0.068421	0.260498	-0.200911	0	0	-0.222721	-0.0921355	-0.0137117	0.282576	-0.15914	0	0	-0.279712	0.087545	-0.100524	-0.00221568	-0.349543	0.399993	0.756714	1.5708	0	0	0.00649134	-0.264344	0.361548	0.777071	1.5708	0	0
0.24	3.00108	1.3553	-1.28853	0.658851	-0.231396	0.94679	-0.233334	0.032772	-0.068248	0.260191	-0.201221	0	0	-0.222662	-0.0921832	-0.0133994	0.282439	-0.159446	0	0	-0.280068	0.0876773	-0.100991	-0.00187171	-0.349451	0.400367	0.756543	1.5708	0	0	0.00596833	-0.264459	0.360476	0.77783	1.5708	0	0
0.25	3.00139	1.3554	-1.28871	0.65889	-0.231411	0.946789	-0.233581	0.0328322	-0.0685286	0.259395	-0.201577	0	0	-0.222605	-0.0921019	-0.0132155	0.282259	-0.159555	0	0	-0.280136	0.0875454	-0.101563	-0.00180994	-0.349443	0.400994	0.756379	1.5708	0	0	0.00522037	-0.264807	0.359608	0.778953	1.5708	0	0
0.26	3.00125	1.35533	-1.28856	0.658937	-0.231442	0.946792	-0.233992	0.0330334	-0.0684064	0.258404	-0.201963	0	0	-0.222783	-0.0921861	-0.0132739	0.281971	-0.159566	0	0	-0.280332	0.0875777	-0.10199	-0.00157362	-0.349332	0.401423	0.755945	1.5708	0	0	0.00457958	-0.265063	0.359025	0.779976	1.5708	0	0
0.27	3.00034	1.35518	-1.28788	0.659007	-0.231488	0.946814	-0.234326	0.0334209	-0.0677964	0.257532	-0.202256	0	0	-0.223048	-0.0924246	-0.0134591	0.281646	-0.159645	0	0	-0.280607	0.0877565	-0.102063	-0.00112845	-0.349271	0.401939	0.755302	1.5708	0	0	0.00420732	-0.265188	0.358928	0.780658	1.5708	0	0
0.28	3.00021	1.35518	-1.2878	0.659061	-0.231514	0.946838	-0.23448	0.0335695	-0.0676752	0.257086	-0.202382	0	0	-0.223218	-0.0924384	-0.0134863	0.28126	-0.159754	0	0	-0.280599	0.0876454	-0.102133	-0.000912294	-0.349308	0.402532	0.754703	1.5708	0	0	0.00393144	-0.265309	0.359336	0.781086	1.5708	0	0
0.29	3.00028	1.35522	-1.28778	0.659103	-0.231526	0.946852	-0.234582	0.0336681	-0.0679682	0.256776	-0.202494	0	0	-0.223316	-0.0924228	-0.0135811	0.280955	-0.159769	0	0	-0.280334	0.0874674	-0.102236	-0.00104842	-0.349452	0.40331	0.754164	1.5708	0	0	0.00352952	-0.265421	0.359751	0.781415	1.5708	0	0
0.3	3.00013	1.35533	-1.28759	0.659153	-0.231526	0.946843	-0.234533	0.03377	-0.0684053	0.256614	-0.202526	0	0	-0.223214	-0.0924947	-0.0139878	0.280996	-0.159708	0	0	-0.279875	0.0872849	-0.102403	-0.00116136	-0.349419	0.403952	0.753406	1.5708	0	0	0.00304636	-0.265333	0.35973	0.78142	1.5708	0	0
0.31	2.99998	1.35578	-1.28738	0.659197	-0.231525	0.94684	-0.234084	0.0337643	-0.0686874	0.256503	-0.202466	0	0	-0.222764	-0.0924041	-0.0141027	0.280921	-0.15978	0	0	-0.279126	0.0873462	-0.103152	-0.00111357	-0.349503	0.40493	0.752803	1.5708	0	0	0.00262541	-0.265158	0.359409	0.78085	1.5708	0	0
0.32	2.99915	1.35622	-1.28658	0.65925	-0.231513	0.946835	-0.233564	0.033889	-0.0687678	0.256632	-0.202239	0	0	-0.222345	-0.092415	-0.01418	0.28071	-0.159858	0	0	-0.278328	0.0874611	-0.104109	-0.000938692	-0.349613	0.406367	0.752117	1.5708	0	0	0.00196471	-0.264997	0.358405	0.780514	1.5708	0	0
